<svg width="1024" height="1024" viewBox="0 0 1024 1024" fill="none" xmlns="http://www.w3.org/2000/svg">
<path d="M446.3 288L466.8 296.262L491.4 316.917L511.9 345.833L528.3 325.179L565.2 292.131L585.7 288V292.131L639 304.524L675.9 325.179L680 341.702L647.2 325.179H634.9L655.4 341.702L671.8 378.881V432.583L655.4 478.024L626.7 535.857H618.5L598 486.286V473.893L618.5 453.238L622.6 444.976L602.1 457.369H581.6L577.5 436.714L589.8 428.452L614.4 420.19L630.8 411.929L639 391.274L643.1 387.143V366.488L618.5 383.012L581.6 399.536L565.2 407.798L569.3 366.488L544.7 387.143L540.6 395.405L552.9 399.536L561.1 428.452L540.6 424.321L536.5 444.976L548.8 449.107L561.1 490.417V506.94L516 531.726L491.4 523.464L466.8 506.94L470.9 473.893L483.2 444.976L487.3 424.321L475 436.714L470.9 465.631L458.6 506.94L454.5 511.071L462.7 539.988L483.2 552.381L503.7 573.036V614.345L450.4 635H425.8L417.6 610.214V544.119L438.1 486.286L470.9 411.929L483.2 395.405L475 378.881L462.7 370.619L466.8 411.929L446.3 399.536L409.4 383.012L393 370.619V362.357L384.8 366.488V387.143L397.1 403.667V411.929L413.5 420.19L442.2 432.583L450.4 449.107L442.2 457.369L413.5 453.238L405.3 449.107L421.7 473.893L417.6 490.417L405.3 511.071L401.2 535.857L393 531.726L380.7 494.548L360.2 453.238L356.1 436.714V383.012L376.6 341.702L401.2 321.048L376.6 325.179L352 333.44L372.5 312.786L401.2 300.393H450.4L446.3 288Z" fill="white"/>
<path d="M332.826 395V407.351L308.304 448.521L296.043 489.691V522.628L332.826 477.34L341 473.223L332.826 497.926L316.478 551.447V633.787L341 699.66L357.348 724.362L365.522 674.957L377.783 633.787L390.043 621.436L385.957 642.021V699.66L402.304 744.947L426.826 773.766L435 782H402.304L377.783 765.532L365.522 744.947V736.713L341 728.479L316.478 707.894L291.957 666.723L275.609 600.851L271.522 584.383L263.348 650.255L255.174 637.904L247 596.734V530.862L263.348 485.574L291.957 436.17L332.826 395Z" fill="white"/>
<path d="M695.444 400L723.963 424.593L756.556 469.679L776.926 514.765L781 531.16V604.938L772.852 637.728H768.778L756.556 580.346L744.333 645.926L728.037 686.914L695.444 723.802L671 732L699.519 674.617L711.741 633.63V551.654L691.37 490.173L683.222 473.778L695.444 477.877L719.889 506.568L736.185 535.259L732.111 494.272L715.815 440.988L695.444 408.198V400Z" fill="white"/>
<path d="M486.871 635H523.742L560.613 647.222V659.444L577 667.593V696.111L560.613 720.556L540.129 736.852L519.645 745L531.935 700.185H490.968L503.258 732.778V745L482.774 736.852L462.29 720.556L450 696.111V667.593L458.194 659.444V647.222L486.871 635Z" fill="white"/>
<path d="M561.909 432L570.091 440.28L602.818 535.5L611 568.62V630.72L590.545 639L570.091 634.86L521 614.16V572.76L553.727 543.78L566 535.5L574.182 510.66L566 502.38L553.727 448.56V436.14L561.909 432Z" fill="white"/>
<path d="M662.462 169H719.538L731.769 177.24L703.231 181.36L699.154 185.48L735.846 197.84L760.308 214.32L784.769 243.16L797 263.76L792.923 272L768.462 251.4L723.615 234.92H654.308L609.462 251.4L585 263.76L589.077 239.04L617.615 197.84L642.077 177.24L662.462 169Z" fill="white"/>
<path d="M308.412 169H369.588L402.216 197.875L426.686 226.75L443 255.625L438.922 263.875L389.98 239.125L369.588 235H304.333L259.471 251.5L235 268L243.157 247.375L279.863 206.125L312.49 189.625H341.039V181.375L300.255 177.25L308.412 169Z" fill="white"/>
<path d="M314.943 313L323 317.118L286.743 345.941L254.514 378.882L222.286 432.412L202.143 490.059L198.114 523L190.057 510.647L182 444.765L198.114 411.824L234.371 366.529L270.629 337.706L314.943 313Z" fill="white"/>
<path d="M708 317L728.294 321.122L772.941 349.98L821.647 399.449L846 444.796L841.941 490.143L833.824 519H829.765L817.588 465.408L785.118 399.449L756.706 362.347L720.176 329.367L708 317Z" fill="white"/>
<path d="M638.533 620L650.733 632.462L667 674V744.615L654.8 765.385L622.267 782L606 777.846L626.333 752.923L642.6 711.385V636.615L638.533 620Z" fill="white"/>
<path d="M397.065 123L421.645 127.214L466.71 160.929L479 182L462.613 173.571L429.839 152.5L417.548 148.286L352 144.071L360.194 135.643L397.065 123Z" fill="white"/>
<path fill-rule="evenodd" clip-rule="evenodd" d="M254.695 727.152L230.189 723L205.684 735.457V743.761L266.947 772.826L328.211 806.043L144.421 735.457L128.084 731.304L124 747.913L132.168 752.065L246.526 793.587L422.147 860.022L458.905 872.478L454.821 893.239L483.411 905.696L520.168 914L573.263 893.239L569.179 872.478L601.853 860.022L777.474 793.587L900 747.913V739.609L879.579 735.457L855.074 743.761L695.789 806.043L708.042 797.739L822.4 743.761L801.979 727.152L777.474 723L728.463 747.913L646.779 785.283L601.853 797.739L561.01 810.196L524.253 839.261L516.084 860.022L507.916 855.87L487.495 830.957L454.821 810.196L413.979 797.739L364.968 781.13L254.695 727.152ZM528.368 865H495.526L475 877.375V885.625L507.842 898L553 885.625V877.375L528.368 865Z" fill="white"/>
<path d="M500 110L540.5 114.222L564.8 131.111L576.95 160.667L581 186L564.8 169.111L544.55 139.556L500 114.222V110Z" fill="white"/>
<path d="M617.909 128H650.636L667 139.5L609.727 143.333L589.273 151L577 147.167L617.909 128Z" fill="white"/>
<path d="M752 292H781.05L814.25 308.333L835 332.833L830.85 341L797.65 312.417L752 296.083V292Z" fill="white"/>
<path d="M242.895 292H272L259.526 300.167L217.947 320.583L193 341L201.316 320.583L226.263 300.167L242.895 292Z" fill="white"/>
<path d="M409 400L425.889 403.833V411.5L447 407.667L438.556 423L417.444 419.167L409 411.5V400Z" fill="white"/>
<path d="M606.5 400H615L610.75 419.167L589.5 423L581 419.167V407.667H606.5V400Z" fill="white"/>
<path d="M801 310L818 313.875L835 333.25L830.75 341L801 317.75V310Z" fill="white"/>
</svg>
